<svg width="512" height="512" viewBox="0 0 512 512" fill="none" xmlns="http://www.w3.org/2000/svg">
<g clip-path="url(#clip0_223_2)">
<path d="M411.042 0H100.958C45.2003 0 0 45.2003 0 100.958V411.042C0 466.8 45.2003 512 100.958 512H411.042C466.8 512 512 466.8 512 411.042V100.958C512 45.2003 466.8 0 411.042 0Z" fill="black"/>
<path d="M427.677 161.736C410.29 131.946 386.707 108.362 356.92 90.9773C327.129 73.5919 294.606 64.9014 259.328 64.9014C224.054 64.9014 191.521 73.5945 161.736 90.9773C131.946 108.361 108.364 131.946 90.9773 161.736C73.5936 191.524 64.9014 224.053 64.9014 259.323C64.9014 301.689 77.2619 339.786 101.989 373.623C126.714 407.463 158.654 430.879 197.808 443.873C202.366 444.719 205.74 444.124 207.933 442.103C210.128 440.08 211.224 437.546 211.224 434.511C211.224 434.005 211.18 429.45 211.096 420.841C211.009 412.232 210.968 404.722 210.968 398.314L205.145 399.321C201.433 400.001 196.749 400.289 191.095 400.208C185.443 400.129 179.576 399.537 173.501 398.435C167.424 397.344 161.771 394.812 156.539 390.846C151.309 386.88 147.596 381.688 145.402 375.279L142.87 369.454C141.183 365.575 138.526 361.267 134.897 356.544C131.268 351.817 127.598 348.613 123.885 346.925L122.113 345.657C120.932 344.813 119.836 343.796 118.822 342.616C117.81 341.436 117.051 340.255 116.545 339.072C116.038 337.888 116.458 336.917 117.81 336.156C119.163 335.394 121.606 335.024 125.152 335.024L130.214 335.781C133.589 336.457 137.765 338.478 142.745 341.855C147.723 345.23 151.815 349.617 155.022 355.016C158.906 361.937 163.585 367.211 169.073 370.84C174.556 374.47 180.085 376.281 185.653 376.281C191.222 376.281 196.031 375.859 200.083 375.019C204.131 374.175 207.929 372.906 211.475 371.22C212.994 359.908 217.129 351.217 223.878 345.142C214.259 344.131 205.611 342.609 197.93 340.585C190.253 338.558 182.319 335.268 174.135 330.707C165.946 326.152 159.154 320.496 153.754 313.748C148.354 306.997 143.923 298.133 140.466 287.166C137.007 276.194 135.277 263.537 135.277 249.192C135.277 228.767 141.945 211.386 155.278 197.039C149.032 181.684 149.622 164.469 157.048 145.398C161.943 143.878 169.202 145.019 178.82 148.815C188.441 152.612 195.485 155.866 199.959 158.563C204.433 161.259 208.018 163.544 210.719 165.398C226.418 161.011 242.619 158.817 259.326 158.817C276.033 158.817 292.238 161.011 307.937 165.398L317.557 159.325C324.136 155.272 331.904 151.559 340.844 148.183C349.789 144.809 356.628 143.88 361.356 145.401C368.948 164.473 369.625 181.686 363.377 197.042C376.709 211.389 383.38 228.774 383.38 249.195C383.38 263.54 381.644 276.236 378.19 287.292C374.732 298.35 370.262 307.205 364.779 313.875C359.289 320.544 352.453 326.155 344.269 330.71C336.083 335.267 328.147 338.557 320.47 340.584C312.789 342.611 304.141 344.134 294.523 345.147C303.296 352.739 307.683 364.722 307.683 381.092V434.504C307.683 437.539 308.738 440.072 310.85 442.096C312.96 444.117 316.291 444.712 320.849 443.865C360.008 430.872 391.948 407.456 416.672 373.616C441.393 339.779 453.758 301.682 453.758 259.315C453.749 224.051 445.052 191.524 427.677 161.736Z" fill="white"/>
</g>
<defs>
<clipPath id="clip0_223_2">
<rect width="512" height="512" fill="white"/>
</clipPath>
</defs>
</svg>
