<svg width="512" height="512" viewBox="0 0 512 512" fill="none" xmlns="http://www.w3.org/2000/svg">
<g clip-path="url(#clip0_223_2)">
<path d="M402.286 0H109.714C49.1208 0 0 49.1208 0 109.714V402.286C0 462.879 49.1208 512 109.714 512H402.286C462.879 512 512 462.879 512 402.286V109.714C512 49.1208 462.879 0 402.286 0Z" fill="url(#paint0_radial_223_2)"/>
<path d="M402.286 0H109.714C49.1208 0 0 49.1208 0 109.714V402.286C0 462.879 49.1208 512 109.714 512H402.286C462.879 512 512 462.879 512 402.286V109.714C512 49.1208 462.879 0 402.286 0Z" fill="url(#paint1_radial_223_2)"/>
<path d="M402.286 0H109.714C49.1208 0 0 49.1208 0 109.714V402.286C0 462.879 49.1208 512 109.714 512H402.286C462.879 512 512 462.879 512 402.286V109.714C512 49.1208 462.879 0 402.286 0Z" fill="url(#paint2_radial_223_2)"/>
<path d="M384 155.429C384 170.576 371.72 182.857 356.572 182.857C341.424 182.857 329.143 170.576 329.143 155.429C329.143 140.28 341.424 128 356.572 128C371.72 128 384 140.28 384 155.429Z" fill="white"/>
<path fill-rule="evenodd" clip-rule="evenodd" d="M256 347.428C306.494 347.428 347.428 306.494 347.428 256C347.428 205.506 306.494 164.571 256 164.571C205.506 164.571 164.571 205.506 164.571 256C164.571 306.494 205.506 347.428 256 347.428ZM256 310.857C286.297 310.857 310.857 286.297 310.857 256C310.857 225.702 286.297 201.143 256 201.143C225.702 201.143 201.143 225.702 201.143 256C201.143 286.297 225.702 310.857 256 310.857Z" fill="white"/>
<path fill-rule="evenodd" clip-rule="evenodd" d="M73.1431 248.686C73.1431 187.24 73.1431 156.517 85.1012 133.048C95.6199 112.404 112.404 95.6199 133.048 85.1012C156.517 73.1431 187.24 73.1431 248.686 73.1431H263.314C324.76 73.1431 355.484 73.1431 378.952 85.1012C399.596 95.6199 416.381 112.404 426.899 133.048C438.857 156.517 438.857 187.24 438.857 248.686V263.314C438.857 324.76 438.857 355.484 426.899 378.952C416.381 399.596 399.596 416.381 378.952 426.899C355.484 438.857 324.76 438.857 263.314 438.857H248.686C187.24 438.857 156.517 438.857 133.048 426.899C112.404 416.381 95.6199 399.596 85.1012 378.952C73.1431 355.484 73.1431 324.76 73.1431 263.314V248.686ZM248.686 109.714H263.314C294.642 109.714 315.935 109.743 332.396 111.088C348.431 112.398 356.63 114.772 362.35 117.687C376.112 124.699 387.301 135.888 394.313 149.65C397.228 155.37 399.603 163.57 400.913 179.604C402.257 196.065 402.286 217.359 402.286 248.686V263.314C402.286 294.642 402.257 315.935 400.913 332.396C399.603 348.431 397.228 356.63 394.313 362.35C387.301 376.112 376.112 387.301 362.35 394.313C356.63 397.228 348.431 399.603 332.396 400.913C315.935 402.257 294.642 402.286 263.314 402.286H248.686C217.359 402.286 196.065 402.257 179.604 400.913C163.57 399.603 155.37 397.228 149.65 394.313C135.888 387.301 124.699 376.112 117.687 362.35C114.772 356.63 112.398 348.431 111.088 332.396C109.743 315.935 109.714 294.642 109.714 263.314V248.686C109.714 217.359 109.743 196.065 111.088 179.604C112.398 163.57 114.772 155.37 117.687 149.65C124.699 135.888 135.888 124.699 149.65 117.687C155.37 114.772 163.57 112.398 179.604 111.088C196.065 109.743 217.359 109.714 248.686 109.714Z" fill="white"/>
</g>
<defs>
<radialGradient id="paint0_radial_223_2" cx="0" cy="0" r="1" gradientUnits="userSpaceOnUse" gradientTransform="translate(182.857 384) rotate(-55.3758) scale(466.644)">
<stop stop-color="#B13589"/>
<stop offset="0.79309" stop-color="#C62F94"/>
<stop offset="1" stop-color="#8A3AC8"/>
</radialGradient>
<radialGradient id="paint1_radial_223_2" cx="0" cy="0" r="1" gradientUnits="userSpaceOnUse" gradientTransform="translate(164.571 530.286) rotate(-65.1363) scale(413.151)">
<stop stop-color="#E0E8B7"/>
<stop offset="0.444662" stop-color="#FB8A2E"/>
<stop offset="0.71474" stop-color="#E2425C"/>
<stop offset="1" stop-color="#E2425C" stop-opacity="0"/>
</radialGradient>
<radialGradient id="paint2_radial_223_2" cx="0" cy="0" r="1" gradientUnits="userSpaceOnUse" gradientTransform="translate(-27.4286 18.2857) rotate(-8.1301) scale(711.148 152.107)">
<stop offset="0.156701" stop-color="#406ADC"/>
<stop offset="0.467799" stop-color="#6A45BE"/>
<stop offset="1" stop-color="#6A45BE" stop-opacity="0"/>
</radialGradient>
<clipPath id="clip0_223_2">
<rect width="512" height="512" fill="white"/>
</clipPath>
</defs>
</svg>
