<svg width="512" height="512" viewBox="0 0 512 512" fill="none" xmlns="http://www.w3.org/2000/svg">
<g clip-path="url(#clip0_223_2)">
<path d="M117.491 0H394.509C459.599 0 512 52.4005 512 117.49V394.509C512 459.599 459.599 512 394.509 512H117.491C52.4008 512 0 459.599 0 394.509V117.49C0 52.4005 52.4008 0 117.491 0Z" fill="url(#paint0_linear_223_2)"/>
<path d="M112.178 145.6C109.48 145.6 106.939 146.065 104.534 147.022L152.711 196.622L201.422 247.111L202.311 248.177L203.734 249.6L205.156 251.022L208 254.044L249.778 296.889C250.474 297.321 252.489 299.188 254.064 299.975C256.093 300.989 258.292 301.924 260.558 302.005C263.004 302.092 265.504 301.392 267.704 300.321C269.353 299.519 270.085 298.37 272 296.889L320.356 246.933L369.245 196.622L416.356 148.088C413.331 146.45 409.982 145.6 406.4 145.6H112.178ZM97.4225 151.644C92.2847 156.512 89.0669 163.831 89.0669 172.088V334.933C89.0669 341.619 91.2144 347.694 94.7558 352.355L101.511 345.955L151.822 297.066L196.445 253.866L195.556 252.8L146.667 202.488L97.778 152L97.4225 151.644ZM422.756 153.244L375.111 202.488L326.4 252.8L325.511 253.689L371.911 298.666L422.222 347.555L425.245 350.4C427.954 346.053 429.511 340.699 429.511 334.933V172.088C429.511 164.725 426.96 158.049 422.756 153.244ZM202.134 259.733L157.689 302.933L107.2 351.822L100.8 358.044C104.174 360.217 108.014 361.6 112.178 361.6H406.4C411.406 361.6 415.947 359.674 419.734 356.622L416.534 353.422L366.045 304.533L319.645 259.733L277.867 302.755C275.606 304.254 274.095 305.917 271.887 306.938C268.334 308.581 264.439 309.971 260.525 309.911C256.6 309.851 252.751 308.315 249.229 306.582C247.461 305.713 246.519 304.848 244.445 303.111L202.134 259.733Z" fill="white"/>
</g>
<defs>
<linearGradient id="paint0_linear_223_2" x1="259.585" y1="509.945" x2="260.083" y2="6.18104" gradientUnits="userSpaceOnUse">
<stop stop-color="#70EFFF"/>
<stop offset="1" stop-color="#5770FF"/>
</linearGradient>
<clipPath id="clip0_223_2">
<rect width="512" height="512" fill="white"/>
</clipPath>
</defs>
</svg>
